<?xml version="1.0" encoding="UTF-8" standalone="no"?>
<!-- Created with Inkscape (http://www.inkscape.org/) -->

<svg
   xmlns:dc="http://purl.org/dc/elements/1.1/"
   xmlns:cc="http://creativecommons.org/ns#"
   xmlns:rdf="http://www.w3.org/1999/02/22-rdf-syntax-ns#"
   xmlns:svg="http://www.w3.org/2000/svg"
   xmlns="http://www.w3.org/2000/svg"
   xmlns:sodipodi="http://sodipodi.sourceforge.net/DTD/sodipodi-0.dtd"
   xmlns:inkscape="http://www.inkscape.org/namespaces/inkscape"
   width="400mm"
   height="200mm"
   viewBox="0 0 400 200"
   version="1.1"
   id="svg8"
   inkscape:version="0.92.3 (2405546, 2018-03-11)"
   sodipodi:docname="Cardano_logo.svg"
   inkscape:export-filename="/home/maax/Документы/1/FREE_logo.2.64x64.png"
   inkscape:export-xdpi="4.0999999"
   inkscape:export-ydpi="4.0999999">
  <defs
     id="defs2" />
  <sodipodi:namedview
     id="base"
     pagecolor="#ffffff"
     bordercolor="#666666"
     borderopacity="1.0"
     inkscape:pageopacity="0.0"
     inkscape:pageshadow="2"
     inkscape:zoom="0.35"
     inkscape:cx="703.62205"
     inkscape:cy="602.85714"
     inkscape:document-units="mm"
     inkscape:current-layer="layer3"
     showgrid="false"
     inkscape:window-width="1600"
     inkscape:window-height="869"
     inkscape:window-x="0"
     inkscape:window-y="31"
     inkscape:window-maximized="1" />
  <metadata
     id="metadata5">
    <rdf:RDF>
      <cc:Work
         rdf:about="">
        <dc:format>image/svg+xml</dc:format>
        <dc:type
           rdf:resource="http://purl.org/dc/dcmitype/StillImage" />
        <dc:title></dc:title>
      </cc:Work>
    </rdf:RDF>
  </metadata>
  <g
     inkscape:label="Layer 1"
     inkscape:groupmode="layer"
     id="layer1"
     transform="translate(0,-97)"
     style="display:inline">
    <path
       style="fill:none;fill-opacity:1;stroke-width:0.26609185"
       id="path20"
       sodipodi:type="arc"
       sodipodi:cx="199.94939"
       sodipodi:cy="96.672623"
       sodipodi:rx="199.9494"
       sodipodi:ry="123.22024"
       sodipodi:start="0.069636608"
       sodipodi:end="0.064968605"
       d="M 399.41418,105.24633 A 199.9494,123.22024 0 0 1 186.26962,219.60414 199.9494,123.22024 0 0 1 0.45266332,88.385839 199.9494,123.22024 0 0 1 213.16352,-26.278236 199.9494,123.22024 0 0 1 399.47695,104.67244"
       sodipodi:open="true" />
    <text
       xml:space="preserve"
       style="font-style:normal;font-weight:normal;font-size:10.58333302px;line-height:1.25;font-family:sans-serif;letter-spacing:0px;word-spacing:0px;fill:#aa8800;fill-opacity:1;stroke:none;stroke-width:0.26458332"
       x="46.869045"
       y="95.916664"
       id="text32"><tspan
         sodipodi:role="line"
         id="tspan30"
         x="46.869045"
         y="105.28043"
         style="fill:#aa8800;stroke-width:0.26458332" /></text>
    <text
       xml:space="preserve"
       style="font-style:normal;font-weight:normal;font-size:10.58333302px;line-height:1.25;font-family:sans-serif;letter-spacing:0px;word-spacing:0px;fill:#d4aa00;fill-opacity:1;stroke:none;stroke-width:0.26458332"
       x="58.964287"
       y="87.601189"
       id="text4544"><tspan
         sodipodi:role="line"
         id="tspan4542"
         x="58.964287"
         y="96.964958"
         style="fill:#d4aa00;stroke-width:0.26458332" /></text>
    <text
       xml:space="preserve"
       style="font-style:normal;font-weight:normal;font-size:10.58333302px;line-height:1.25;font-family:sans-serif;letter-spacing:0px;word-spacing:0px;fill:#ffcc00;fill-opacity:1;stroke:none;stroke-width:0.26458332"
       x="46.113091"
       y="96.672615"
       id="text4548"><tspan
         sodipodi:role="line"
         id="tspan4546"
         x="46.113091"
         y="106.03638"
         style="fill:#ffcc00;stroke-width:0.26458332" /></text>
    <text
       xml:space="preserve"
       style="font-style:normal;font-weight:normal;font-size:10.58333302px;line-height:1.25;font-family:sans-serif;letter-spacing:0px;word-spacing:0px;fill:#000000;fill-opacity:1;stroke:none;stroke-width:0.26458332"
       x="40.821426"
       y="94.404762"
       id="text4560"><tspan
         sodipodi:role="line"
         id="tspan4558"
         x="40.821426"
         y="103.76853"
         style="stroke-width:0.26458332" /></text>
    <flowRoot
       xml:space="preserve"
       id="flowRoot4580"
       style="font-style:normal;font-weight:normal;font-size:40px;line-height:1.25;font-family:sans-serif;letter-spacing:0px;word-spacing:0px;fill:#000000;fill-opacity:1;stroke:none"><flowRegion
         id="flowRegion4582"><rect
           id="rect4584"
           width="0"
           height="77.14286"
           x="1102.8572"
           y="471.81104" /></flowRegion><flowPara
         id="flowPara4586" /></flowRoot>  </g>
  <g
     inkscape:groupmode="layer"
     id="layer3"
     inkscape:label="Layer 2"
     style="display:inline"
     transform="translate(0,-200)">
    <g
       transform="matrix(2.5275241,0,0,2.7539783,99.897729,182.72402)"
       id="g54"
       style="fill:#addd5b;fill-opacity:1;opacity:0.5"
       inkscape:export-xdpi="25"
       inkscape:export-ydpi="25">
      <g
         id="g52"
         style="fill:#addd5b;fill-opacity:1">
        <path
           inkscape:connector-curvature="0"
           d="m 34.611009,37.488756 c -1.806812,0 -3.493169,-1.037136 -4.336347,-2.684351 -1.204541,-2.379311 -0.240908,-5.368701 2.168173,-6.588861 0.662498,-0.366047 1.445449,-0.549071 2.168174,-0.549071 1.806811,0 3.493168,1.037135 4.336347,2.68435 1.204541,2.379311 0.240908,5.368701 -2.107947,6.588861 -0.722724,0.366048 -1.445449,0.549072 -2.2284,0.549072 m -5.661342,10.005306 c -0.120454,0 -0.180681,0 -0.301135,0 -2.64999,-0.183024 -4.69771,-2.501326 -4.517029,-5.185677 0.120454,-2.684351 2.409082,-4.758621 5.119299,-4.575598 2.64999,0.122016 4.697709,2.440319 4.517028,5.185678 -0.120454,2.501326 -2.2284,4.575597 -4.818163,4.575597 m 5.721569,9.944299 c -0.963633,0 -1.867039,-0.30504 -2.64999,-0.793103 -1.084087,-0.732096 -1.806811,-1.830239 -2.04772,-3.111407 -0.240908,-1.281167 0,-2.562334 0.662498,-3.660478 0.903406,-1.403183 2.409082,-2.196287 4.035212,-2.196287 0.963632,0 1.867038,0.30504 2.64999,0.793104 1.084086,0.732096 1.806811,1.830239 2.107946,3.111406 0.240908,1.281168 0,2.562335 -0.662497,3.660478 -0.963633,1.342176 -2.469309,2.196287 -4.095439,2.196287 m 11.382911,0 c -1.806812,0 -3.493169,-1.037135 -4.336347,-2.68435 -0.602271,-1.159152 -0.662498,-2.501327 -0.301136,-3.721486 0.42159,-1.22016 1.264768,-2.257295 2.409082,-2.806367 0.662498,-0.366048 1.445449,-0.549072 2.168174,-0.549072 1.806811,0 3.493168,1.037136 4.336347,2.684351 1.204541,2.379311 0.240908,5.368701 -2.168174,6.588861 -0.60227,0.305039 -1.385222,0.488063 -2.107946,0.488063 m 5.661342,-10.005307 c -0.120454,0 -0.180681,0 -0.301136,0 -2.649989,-0.122016 -4.697709,-2.440318 -4.517028,-5.185677 0.180681,-2.684351 2.409082,-4.758621 5.119299,-4.636606 1.264768,0.06101 2.469309,0.671088 3.312487,1.647216 0.843179,0.976127 1.264768,2.257294 1.204541,3.538462 -0.120454,2.623342 -2.288628,4.636605 -4.818163,4.636605 M 45.99392,37.427748 c -0.963633,0 -1.867039,-0.30504 -2.64999,-0.793104 -2.228401,-1.464191 -2.830671,-4.51459 -1.385222,-6.771885 0.903405,-1.403183 2.409082,-2.196286 4.035212,-2.196286 0.963632,0 1.867038,0.305039 2.64999,0.793103 2.2284,1.464191 2.83067,4.51459 1.385221,6.771885 -0.903405,1.403183 -2.409081,2.196287 -4.035211,2.196287 M 29.792845,19.308381 c 0.602271,1.220159 0.120454,2.684351 -1.084086,3.29443 -1.204541,0.61008 -2.64999,0.122016 -3.252261,-1.098143 -0.60227,-1.22016 -0.120454,-2.684351 1.084087,-3.294431 1.204541,-0.610079 2.64999,-0.122015 3.25226,1.098144 M 15.157674,40.173106 c 1.324995,0.06101 2.348855,1.22016 2.288628,2.562335 -0.06023,1.342175 -1.204541,2.379311 -2.529536,2.318303 -1.324995,-0.06101 -2.348855,-1.22016 -2.288628,-2.562335 0.06023,-1.342175 1.204541,-2.379311 2.529536,-2.318303 m 10.539732,23.244036 c 0.722725,-1.098143 2.228401,-1.464191 3.312488,-0.671087 1.144314,0.732095 1.445449,2.257294 0.722724,3.355438 -0.722724,1.098143 -2.2284,1.464191 -3.312487,0.732095 -1.144314,-0.793103 -1.445449,-2.257294 -0.722725,-3.416446 m 25.174904,2.379311 c -0.60227,-1.220159 -0.120454,-2.684351 1.084087,-3.29443 1.204541,-0.61008 2.64999,-0.122016 3.25226,1.098143 0.602271,1.220159 0.120454,2.684351 -1.084087,3.29443 -1.20454,0.61008 -2.64999,0.122016 -3.25226,-1.098143 M 65.507481,44.931728 c -1.324995,-0.06101 -2.348854,-1.22016 -2.288627,-2.562335 0.06023,-1.342175 1.204541,-2.379311 2.529535,-2.318303 1.324995,0.06101 2.348855,1.22016 2.288628,2.562335 -0.06023,1.342175 -1.204541,2.379311 -2.529536,2.318303 M 54.967749,21.687692 c -0.722725,1.159151 -2.228401,1.464191 -3.312487,0.732095 -1.144314,-0.732095 -1.445449,-2.257295 -0.722725,-3.355438 0.722725,-1.159151 2.228401,-1.464191 3.312487,-0.732096 1.144314,0.732096 1.445449,2.196287 0.722725,3.355439 M 24.492866,11.804401 c 0.361362,0.793103 0.06023,1.708223 -0.662498,2.135279 -0.782951,0.366047 -1.686357,0.06101 -2.107946,-0.671088 -0.361363,-0.793104 -0.06023,-1.708223 0.662497,-2.135279 0.782952,-0.427056 1.746584,-0.122016 2.107947,0.671088 M 6.1236178,41.027218 c 0.8431786,0.06101 1.5056761,0.793103 1.445449,1.647215 -0.060227,0.854111 -0.7829515,1.525199 -1.6261301,1.464191 -0.8431786,-0.06101 -1.5056761,-0.793103 -1.445449,-1.647215 0.060227,-0.854112 0.7829515,-1.464191 1.6261301,-1.464191 M 21.96333,71.775234 c 0.481816,-0.732096 1.445449,-0.91512 2.168173,-0.427056 0.722725,0.488064 0.903406,1.464191 0.42159,2.196287 -0.481817,0.732096 -1.445449,0.91512 -2.168174,0.427056 -0.722724,-0.488064 -0.903405,-1.464191 -0.421589,-2.196287 m 34.20896,1.525199 c -0.361362,-0.793103 -0.06023,-1.708223 0.662497,-2.135279 0.782952,-0.366048 1.686357,-0.06101 2.107947,0.671088 0.361362,0.793103 0.06023,1.708223 -0.662498,2.135279 -0.782951,0.427056 -1.746584,0.122016 -2.107946,-0.671088 M 74.541538,44.077616 c -0.843179,-0.06101 -1.505676,-0.793103 -1.445449,-1.647215 0.06023,-0.854112 0.782951,-1.525199 1.62613,-1.464191 0.843178,0.06101 1.505676,0.793103 1.445449,1.647215 -0.06023,0.793103 -0.782952,1.464191 -1.62613,1.464191 M 58.701826,13.3296 c -0.481817,0.732096 -1.445449,0.91512 -2.168174,0.427056 -0.722724,-0.488064 -0.903406,-1.464191 -0.421589,-2.196287 0.481816,-0.732096 1.445449,-0.91512 2.168173,-0.427056 0.722725,0.488064 0.903406,1.464191 0.42159,2.196287 M 24.974682,30.350823 c 1.324995,0.854112 1.686357,2.623343 0.843179,3.965518 -0.843179,1.342175 -2.589763,1.708223 -3.914758,0.854112 -1.324995,-0.854112 -1.686357,-2.623343 -0.843179,-3.965518 0.843179,-1.403183 2.64999,-1.769231 3.914758,-0.854112 m -2.770444,19.52255 c 1.385222,-0.732095 3.131806,-0.122016 3.794304,1.281168 0.722724,1.403183 0.120454,3.172414 -1.264768,3.843502 -1.385222,0.732095 -3.131806,0.122015 -3.794304,-1.281168 -0.722724,-1.403183 -0.120454,-3.111406 1.264768,-3.843502 m 15.116988,12.262602 c 0.06023,-1.586207 1.445449,-2.806367 3.011352,-2.684351 1.565903,0.06101 2.770444,1.464191 2.64999,3.050399 -0.06023,1.586207 -1.445449,2.806366 -3.011353,2.68435 -1.505676,-0.122016 -2.710216,-1.464191 -2.649989,-3.050398 m 18.369247,-7.320956 c -1.324994,-0.854112 -1.686357,-2.623343 -0.843178,-3.965518 0.843178,-1.342176 2.589763,-1.708223 3.914758,-0.854112 1.324995,0.854112 1.686357,2.623343 0.843178,3.965518 -0.843178,1.342175 -2.64999,1.708223 -3.914758,0.854112 m 2.770444,-19.583558 c -1.385222,0.732095 -3.131806,0.122016 -3.794303,-1.281168 -0.722725,-1.403183 -0.120454,-3.172414 1.264768,-3.843502 1.385222,-0.732095 3.131806,-0.122016 3.794303,1.281168 0.722725,1.403183 0.120454,3.111406 -1.264768,3.843502 M 43.103022,22.968859 c -0.06023,1.586207 -1.445449,2.806367 -3.011352,2.684351 -1.565904,-0.06101 -2.770444,-1.464192 -2.64999,-3.050399 0.06023,-1.586207 1.445449,-2.806366 3.011352,-2.68435 1.565903,0.122016 2.770444,1.464191 2.64999,3.050398 M 14.43495,25.165146 c 0.903405,0.61008 1.144313,1.830239 0.542043,2.806366 -0.60227,0.91512 -1.806811,1.22016 -2.770444,0.549072 -0.903406,-0.61008 -1.144314,-1.830239 -0.542043,-2.806366 0.60227,-0.91512 1.867038,-1.159152 2.770444,-0.549072 M 12.507684,56.58425 c 0.963633,-0.488064 2.168174,-0.122016 2.64999,0.915119 0.481816,0.976128 0.120454,2.196287 -0.903406,2.684351 -0.963632,0.488064 -2.168173,0.122016 -2.649989,-0.91512 -0.481817,-0.976127 -0.06023,-2.196287 0.903405,-2.68435 m 25.716947,17.387271 c 0.06023,-1.098144 1.02386,-1.952255 2.107947,-1.891247 1.084086,0.06101 1.927265,1.037135 1.867038,2.135279 -0.06023,1.098143 -1.02386,1.952255 -2.107946,1.891247 -1.084087,-0.06101 -1.927266,-1.037136 -1.867039,-2.135279 M 66.230206,59.939688 c -0.903406,-0.61008 -1.144314,-1.830239 -0.542044,-2.806367 0.602271,-0.915119 1.806812,-1.220159 2.770444,-0.610079 0.903406,0.610079 1.144314,1.830239 0.542044,2.806366 -0.602271,0.976128 -1.867039,1.22016 -2.770444,0.61008 m 1.927265,-31.419104 c -0.963633,0.488064 -2.168173,0.122016 -2.64999,-0.915119 -0.481816,-0.976128 -0.120454,-2.196287 0.903406,-2.684351 0.963633,-0.488064 2.168173,-0.122016 2.64999,0.91512 0.481816,0.976127 0.06023,2.196286 -0.903406,2.68435 M 42.259843,11.133313 c -0.06023,1.098144 -1.02386,1.952255 -2.107946,1.891247 -1.084087,-0.06101 -1.927266,-1.037135 -1.867039,-2.135279 0.06023,-1.0981432 1.02386,-1.9522548 2.107947,-1.8912468 1.084087,0.061008 1.927265,1.0371358 1.867038,2.1352788"
           id="path50"
           style="fill:#addd5b;fill-opacity:1;stroke-width:0.60616249"
           inkscape:export-xdpi="29.573786"
           inkscape:export-ydpi="29.573786" />
      </g>
    </g>
  </g>
  <g
     inkscape:groupmode="layer"
     id="layer4"
     inkscape:label="Layer 3"
     style="display:inline"
     transform="translate(0,-200)" />
</svg>
